
<svg width="513" height="450" viewBox="0 0 513 450" fill="none" xmlns="http://www.w3.org/2000/svg">
<path d="M328 97.015H192V17.015C192 10.871 188.48 5.271 182.944 2.583C177.376 -0.0730035 170.816 0.630995 166.016 4.50299L6.016 132.503C2.208 135.575 0 140.151 0 145.015C0 149.879 2.208 154.455 5.984 157.527L165.984 285.527C168.896 287.831 172.448 289.015 176 289.015C178.368 289.015 180.736 288.503 182.944 287.447C188.48 284.759 192 279.159 192 273.015V193.015H331.392C373.248 193.015 411.392 223.095 415.584 264.727C420.416 312.599 382.88 353.015 336 353.015H208C199.168 353.015 192 360.183 192 369.015V433.015C192 441.847 199.168 449.015 208 449.015H336C438.816 449.015 521.472 360.151 511.136 255.255C502.08 163.863 419.84 97.015 328 97.015Z" fill="#EDD000"/>
</svg>
