<svg width="478" height="478" viewBox="0 0 478 478" fill="none" xmlns="http://www.w3.org/2000/svg">
<g clip-path="url(#clip0)">
<path d="M238.934 477.867C370.893 477.867 477.867 370.893 477.867 238.934C477.867 106.975 370.893 0.00100708 238.934 0.00100708C106.975 0.00100708 0.000946045 106.975 0.000946045 238.934C0.000946045 370.893 106.974 477.867 238.934 477.867ZM123.858 227.511C124.255 227.07 124.675 226.65 125.116 226.253L295.783 72.653C302.911 66.486 313.689 67.264 319.856 74.392C325.852 81.322 325.305 91.749 318.618 98.014L162.048 238.933L318.618 379.853C325.497 386.297 325.849 397.097 319.405 403.976C313.14 410.663 302.712 411.21 295.783 405.214L125.116 251.614C118.113 245.306 117.55 234.514 123.858 227.511Z" fill="#EDD000"/>
</g>
<defs>
<clipPath id="clip0">
<rect width="477.867" height="477.867" fill="white" transform="translate(477.867 477.867) rotate(-180)"/>
</clipPath>
</defs>
</svg>
