<svg width="493" height="493" viewBox="0 0 493 493" fill="none" xmlns="http://www.w3.org/2000/svg">
<g clip-path="url(#clip0)">
<path d="M109.326 265.2L328.274 484.144C333.338 489.212 340.098 492.004 347.306 492.004C354.514 492.004 361.274 489.212 366.338 484.144L382.462 468.024C392.954 457.52 392.954 440.448 382.462 429.96L198.606 246.104L382.666 62.044C387.73 56.976 390.526 50.22 390.526 43.016C390.526 35.804 387.73 29.048 382.666 23.976L366.542 7.86002C361.474 2.79202 354.718 3.05176e-05 347.51 3.05176e-05C340.302 3.05176e-05 333.542 2.79202 328.478 7.86002L109.326 227.004C104.25 232.088 101.462 238.876 101.478 246.092C101.462 253.336 104.25 260.12 109.326 265.2Z" fill="black"/>
</g>
<defs>
<clipPath id="clip0">
<rect width="492.004" height="492.004" fill="white" transform="translate(492.004 492.004) rotate(-180)"/>
</clipPath>
</defs>
</svg>
