<svg width="481" height="481" viewBox="0 0 481 481" fill="none" xmlns="http://www.w3.org/2000/svg">
<g clip-path="url(#clip0)">
<path d="M480.002 184.001C480.002 95.778 408.229 24.001 320.002 24.001H248.002C216.455 24.001 187.018 32.903 161.771 48.09C161.178 48.071 160.599 48.001 160.002 48.001V49.167C112.095 78.795 80.002 131.656 80.002 192.005V200.001C80.002 219.142 92.861 232.001 111.963 232.001L152.69 232.192C156.131 252.239 172.083 268.004 192.179 271.298C193.686 303.062 205.82 315.199 238.869 319.919C266.877 323.923 288.002 348.274 288.002 376.571V424.001C288.002 428.419 291.58 432.001 296.002 432.001H336.002C340.424 432.001 344.002 428.419 344.002 424.001V287.111L375.19 308.611C386.01 316.076 398.682 320.021 411.87 320.021C411.878 320.021 411.886 320.021 411.886 320.021C442.542 320.009 469.152 298.181 475.167 268.123L478.784 250.057C480.662 240.67 480.174 230.728 477.606 221.083C479.151 216.955 480.002 212.545 480.002 208.002V184.001V184.001ZM328.002 264.001V271.665V416.001H304.002V376.571C304.002 340.364 276.971 309.2 241.135 304.083C216.292 300.534 209.336 294.647 208.201 272.001H211.502C240.205 272.001 268.947 265.216 294.619 252.38C305.296 247.043 316.521 243.026 328.002 240.072V264.001ZM463.095 246.919L461.276 256.001H402.235V272.001H457.416C450.536 290.889 432.458 304.01 411.852 304.021C411.844 304.021 411.836 304.021 411.829 304.021C401.938 304.021 392.407 301.052 384.266 295.439L344 267.681V264.001H376V248.001H344V236.749C364.193 233.578 384.922 233.911 405.078 238.153L435.062 244.466C445.133 246.596 455.473 244.438 463.867 238.639C463.83 241.441 463.634 244.221 463.095 246.919ZM464.002 190.865C450.238 187.287 440.002 174.867 440.002 160.001H424.002C424.002 183.739 441.337 203.452 464.002 207.278V208.001C464.002 214.439 461.135 220.458 456.135 224.513C451.127 228.576 444.651 230.13 438.362 228.81L408.378 222.497C396.457 219.987 384.346 218.831 372.241 218.713C369.577 215.781 368.003 211.997 368.003 208.001V200.001C368.003 191.177 375.183 184.001 384.003 184.001C401.651 184.001 416.003 169.646 416.003 152.001V144.001C416.003 126.356 401.651 112.001 384.003 112.001H344.003V128.001H384.003C392.823 128.001 400.003 135.177 400.003 144.001V152.001C400.003 160.825 392.823 168.001 384.003 168.001C366.355 168.001 352.003 182.356 352.003 200.001V208.001C352.003 211.961 352.867 215.799 354.259 219.423C337.134 220.916 320.238 224.7 304.119 230.849C304.741 213.748 318.749 200 336.003 200H344.003V184H336.003C309.534 184 288.003 205.531 288.003 232V237.825C287.826 237.912 287.64 237.978 287.464 238.066C264.003 249.8 237.737 256 211.503 256H208.003C208.003 251.59 211.589 248 216.003 248H240.003C253.237 248 264.003 237.234 264.003 224V192H248.003V224C248.003 228.41 244.417 232 240.003 232H216.003C203.14 232 192.694 242.193 192.113 254.915C178.297 251.4 168.003 238.961 168.003 224.067C168.003 206.602 182.214 192.278 199.675 192.133L216.066 192L215.941 176L199.55 176.133C176.011 176.324 156.417 193.676 152.652 216.192L112.004 216.001C101.832 216.001 96.004 210.169 96.004 200.001C96.004 182.356 110.356 168.001 128.004 168.001C154.473 168.001 176.004 146.47 176.004 120.001V88.001H160.004V120.001C160.004 137.646 145.652 152.001 128.004 152.001C117.116 152.001 107.097 155.687 99.035 161.818C107.26 121.165 131.8 86.426 165.453 64.552C184.914 67.241 200.004 83.813 200.004 104.001V120.001H216.004V104.001C216.004 82.063 203.292 63.085 184.878 53.903C204.134 45.064 225.467 40.001 248.004 40.001H292.722C294.864 42.951 296.004 45.681 296.004 48.001V56.001C296.004 64.524 287.895 72.001 278.645 72.001H276.004C256.152 72.001 240.004 88.149 240.004 108.001C240.004 127.853 256.152 144.001 276.004 144.001H320.004V128.001H276.004C264.973 128.001 256.004 119.028 256.004 108.001C256.004 96.974 264.973 88.001 276.004 88.001H278.645C296.731 88.001 312.004 73.349 312.004 56.001V48.001C312.004 45.341 311.408 42.671 310.516 40.001H320.004C339.227 40.001 357.55 43.856 374.332 50.723C370.164 58.527 361.383 64.001 351.997 64.001L343.997 64.013L344.013 80.013L352.005 80.001C367.731 80.001 382.049 70.888 388.805 57.54C433.567 81.991 464.005 129.504 464.005 184.001V190.865H464.002Z" fill="white"/>
<path d="M418.242 280.001H394.242V296.001H418.242V280.001Z" fill="white"/>
<path d="M208.002 328.001H192.002V344.001H208.002V328.001Z" fill="white"/>
<path d="M192.002 312.001H176.002V328.001H192.002V312.001Z" fill="white"/>
<path d="M176.002 328.001H160.002V344.001H176.002V328.001Z" fill="white"/>
<path d="M192.002 344.001H176.002V360.001H192.002V344.001Z" fill="white"/>
<path d="M144.002 328.001H128.002V344.001H144.002V328.001Z" fill="white"/>
<path d="M152.002 264.001H136.002V280.001H152.002V264.001Z" fill="white"/>
<path d="M48.0021 240.001V208.001C48.0021 102.134 134.135 16.001 240.002 16.001V0.000976562C125.307 0.000976562 32.0021 93.31 32.0021 208.001V238.88L0.306055 349.802C-0.381945 352.216 0.103055 354.814 1.61106 356.818C3.12706 358.822 5.49406 360.002 8.00206 360.002H40.0021V432.002C40.0021 449.647 54.3541 464.002 72.0021 464.002H192.002V480.002H208.002V464.002C208.002 455.178 200.822 448.002 192.002 448.002H72.0021C63.1821 448.002 56.0021 440.826 56.0021 432.002V360.002C56.0021 351.178 48.8221 344.002 40.0021 344.002H18.6111L47.6971 242.2C47.9001 241.485 48.0021 240.743 48.0021 240.001Z" fill="white"/>
<path d="M440.002 352.001H424.002V368.001H440.002V352.001Z" fill="white"/>
<path d="M424.002 336.001H408.002V352.001H424.002V336.001Z" fill="white"/>
<path d="M408.002 352.001H392.002V368.001H408.002V352.001Z" fill="white"/>
<path d="M424.002 368.001H408.002V384.001H424.002V368.001Z" fill="white"/>
<path d="M376.002 352.001H360.002V368.001H376.002V352.001Z" fill="white"/>
<path d="M464.002 304.001V344.001C464.002 361.415 455.455 377.728 441.135 387.638L389.76 423.208C371.127 436.106 360.002 457.341 360.002 480.001H376.002C376.002 462.587 384.549 446.274 398.869 436.364L450.244 400.794C468.877 387.896 480.002 366.661 480.002 344.001V304.001H464.002Z" fill="white"/>
</g>
<defs>
<clipPath id="clip0">
<rect width="480.002" height="480.002" fill="white"/>
</clipPath>
</defs>
</svg>
