<svg width="30" height="30" viewBox="0 0 512 512" fill="none" xmlns="http://www.w3.org/2000/svg">
<path d="M256 0C114.51 0 0 114.5 0 256C0 397.49 114.5 512 256 512C397.49 512 512 397.5 512 256C512 114.51 397.5 0 256 0ZM243.716 317.397L185.595 375.529C179.03 382.082 170.312 385.695 161.038 385.695C141.842 385.695 126.304 370.169 126.304 350.961C126.304 341.687 129.916 332.969 136.47 326.404L194.602 268.283C201.387 261.499 201.387 250.5 194.602 243.715L136.47 185.594C129.917 179.029 126.304 170.311 126.304 161.037C126.304 141.841 141.83 126.303 161.038 126.303C170.312 126.303 179.03 129.916 185.595 136.469L243.716 194.601C250.501 201.374 261.5 201.374 268.284 194.601L326.405 136.469C332.97 129.916 341.688 126.303 350.962 126.303C370.158 126.303 385.696 141.829 385.696 161.037C385.696 170.311 382.084 179.029 375.53 185.594L317.398 243.715C310.613 250.499 310.613 261.498 317.398 268.283L375.53 326.404C382.083 332.969 385.696 341.687 385.696 350.961C385.696 370.157 370.17 385.695 350.962 385.695C341.688 385.695 332.97 382.082 326.405 375.529L268.284 317.397C261.5 310.613 250.5 310.624 243.716 317.397V317.397Z" fill="#EDD000"/>
</svg>
