
<svg width="484" height="512" viewBox="0 0 484 512" fill="none" xmlns="http://www.w3.org/2000/svg">
<path d="M480.478 138.557L350.036 3.018C348.18 1.09 345.62 0 342.942 0H148.534C126.777 0 109.077 17.694 109.077 39.442V177.231H30.289C14.013 177.231 0.770004 190.47 0.770004 206.744V354.488C0.770004 370.761 14.013 384 30.289 384H109.077V472.627C109.077 494.337 126.776 512 148.534 512H443.774C465.531 512 483.231 494.347 483.231 472.649V145.385C483.231 142.839 482.245 140.392 480.478 138.557ZM345.385 26.584L452.464 137.847H345.385V26.584ZM30.289 364.308C24.871 364.308 20.462 359.903 20.462 354.488V206.744C20.462 201.329 24.871 196.923 30.289 196.923H296.171C301.592 196.923 306 201.329 306 206.744V354.488C306 359.903 301.591 364.308 296.171 364.308H30.289ZM463.538 472.649C463.538 483.489 454.673 492.308 443.774 492.308H148.534C137.635 492.308 128.77 483.48 128.77 472.628V384H296.171C312.45 384 325.693 370.761 325.693 354.488V206.744C325.693 190.47 312.45 177.231 296.171 177.231H128.769V39.442C128.769 28.551 137.634 19.692 148.533 19.692H325.692V147.692C325.692 153.13 330.101 157.538 335.538 157.538H463.538V472.649Z" fill="white"/>
</svg>
