
<svg width="512" height="512" viewBox="0 0 512 512" fill="none" xmlns="http://www.w3.org/2000/svg">
<path d="M362.383 90.4688H285.68C281.82 90.4688 278.695 93.5977 278.695 97.4531V166.172C278.695 170.031 281.82 173.16 285.68 173.16H331.586C335.445 173.16 338.574 176.285 338.574 180.145V197.109C338.574 224.895 291.594 237.016 280.859 239.422C279.582 239.707 278.695 240.836 278.695 242.141V254.078C278.695 255.211 279.633 256.137 280.766 256.125C311.676 255.809 331.84 248.414 344.977 239.199C360.504 228.309 369.367 210.199 369.367 191.23V97.4531C369.367 93.5938 366.242 90.4688 362.383 90.4688Z" fill="#6C7FD9"/>
<path d="M497.539 90.4688H420.836C416.98 90.4688 413.852 93.5977 413.852 97.4531V166.172C413.852 170.031 416.98 173.16 420.836 173.16H466.746C470.602 173.16 473.73 176.285 473.73 180.145V197.109C473.73 224.895 426.75 237.016 416.016 239.422C414.742 239.707 413.852 240.836 413.852 242.141V254.078C413.852 255.211 414.793 256.137 415.922 256.125C446.836 255.809 466.996 248.414 480.133 239.199C495.664 228.309 504.527 210.199 504.527 191.23V97.4531C504.523 93.5938 501.398 90.4688 497.539 90.4688Z" fill="#6C7FD9"/>
<path d="M149.668 421.781H226.371C230.227 421.781 233.355 418.652 233.355 414.793V346.074C233.355 342.215 230.227 339.09 226.371 339.09H180.461C176.605 339.09 173.477 335.961 173.477 332.102V315.137C173.477 287.352 220.457 275.23 231.191 272.824C232.465 272.539 233.355 271.41 233.355 270.105V258.168C233.355 257.035 232.418 256.109 231.285 256.125C200.371 256.437 180.211 263.832 167.074 273.047C151.543 283.937 142.68 302.047 142.68 321.016V414.793C142.684 418.652 145.809 421.781 149.668 421.781Z" fill="#6C7FD9"/>
<path d="M14.5117 421.781H91.2148C95.0703 421.781 98.1992 418.652 98.1992 414.793V346.074C98.1992 342.215 95.0703 339.09 91.2148 339.09H45.3086C41.4492 339.09 38.3203 335.961 38.3203 332.102V315.137C38.3203 287.352 85.3008 275.23 96.0352 272.824C97.3086 272.539 98.1992 271.41 98.1992 270.105V258.168C98.1992 257.035 97.2617 256.109 96.1289 256.125C65.2148 256.437 45.0547 263.832 31.918 273.047C16.3906 283.937 7.52344 302.047 7.52344 321.016V414.793C7.52344 418.652 10.6523 421.781 14.5117 421.781Z" fill="#6C7FD9"/>
<path d="M302.359 253.078V241.141C302.359 239.836 303.25 238.707 304.527 238.422C315.258 236.016 362.242 223.895 362.242 196.109V179.145C362.242 175.285 359.113 172.16 355.254 172.16H309.348C305.488 172.16 302.359 169.031 302.359 165.172V96.4531C302.359 93.9102 303.727 91.6875 305.758 90.4688H285.68C281.82 90.4688 278.695 93.5977 278.695 97.4531V166.172C278.695 170.031 281.82 173.16 285.68 173.16H331.586C335.445 173.16 338.574 176.285 338.574 180.145V197.109C338.574 224.895 291.594 237.016 280.859 239.422C279.582 239.707 278.695 240.836 278.695 242.145V254.078C278.695 255.211 279.633 256.137 280.766 256.125C288.879 256.043 296.246 255.465 302.949 254.504C302.586 254.133 302.359 253.633 302.359 253.078V253.078Z" fill="#4F66D1"/>
<path d="M437.516 253.078V241.141C437.516 239.836 438.41 238.707 439.684 238.422C450.414 236.016 497.398 223.895 497.398 196.109V179.145C497.398 175.285 494.27 172.16 490.41 172.16H444.504C440.645 172.16 437.516 169.031 437.516 165.172V96.4531C437.516 93.9102 438.883 91.6875 440.914 90.4688H420.836C416.977 90.4688 413.852 93.5977 413.852 97.4531V166.172C413.852 170.031 416.977 173.16 420.836 173.16H466.746C470.602 173.16 473.73 176.285 473.73 180.145V197.109C473.73 224.895 426.75 237.016 416.016 239.422C414.742 239.707 413.852 240.836 413.852 242.145V254.078C413.852 255.211 414.789 256.137 415.922 256.125C424.035 256.043 431.406 255.465 438.105 254.504C437.746 254.133 437.516 253.633 437.516 253.078V253.078Z" fill="#4F66D1"/>
<path d="M172.348 414.793V321.016C172.348 302.047 181.211 283.937 196.742 273.047C205.477 266.922 217.32 261.605 233.355 258.633V258.172C233.355 257.039 232.418 256.113 231.285 256.125C200.375 256.441 180.211 263.836 167.078 273.047C151.547 283.941 142.684 302.047 142.684 321.016V414.793C142.684 418.652 145.809 421.781 149.668 421.781H179.336C175.477 421.781 172.348 418.652 172.348 414.793Z" fill="#4F66D1"/>
<path d="M37.1914 414.793V321.016C37.1914 302.047 46.0547 283.937 61.5859 273.047C70.3203 266.922 82.1641 261.605 98.1992 258.633V258.172C98.1992 257.039 97.2617 256.113 96.1289 256.125C65.2188 256.441 45.0547 263.836 31.918 273.047C16.3906 283.941 7.52734 302.047 7.52734 321.016V414.793C7.52734 418.652 10.6523 421.781 14.5117 421.781H44.1797C40.3203 421.781 37.1914 418.652 37.1914 414.793Z" fill="#4F66D1"/>
<path d="M279.195 232.137C274.469 233.191 271.168 237.32 271.168 242.176V254.109C271.168 256.676 272.176 259.086 274.004 260.891C275.809 262.676 278.187 263.656 280.711 263.656H280.816C309.352 263.363 332.375 257.211 349.254 245.375C366.531 233.258 376.844 213.031 376.844 191.266V97.4844C376.844 89.5 370.344 83 362.359 83H285.656C277.668 83 271.168 89.5 271.168 97.4844V166.203C271.168 174.191 277.668 180.691 285.656 180.691H331.047V197.141C331.047 219.852 284.5 230.945 279.195 232.137ZM331.562 165.691H286.168V98H361.844V191.262C361.844 208.145 353.918 223.781 340.645 233.094C327.344 242.422 309.035 247.602 286.168 248.52V245.895C304.109 241.398 346.047 227.613 346.047 197.141V180.176C346.047 172.188 339.551 165.691 331.562 165.691Z" fill="white"/>
<path d="M14.4844 429.312H91.1875C99.1758 429.312 105.672 422.812 105.672 414.824V346.105C105.672 338.117 99.1758 331.621 91.1875 331.621H45.793V315.168C45.793 292.461 92.3437 281.363 97.6484 280.176C102.375 279.117 105.676 274.988 105.676 270.137V258.203C105.676 255.637 104.668 253.227 102.84 251.418C101.012 249.609 98.6289 248.613 96.0273 248.656C67.4922 248.949 44.4688 255.098 27.5898 266.938C10.3125 279.051 0 299.281 0 321.047V414.824C0 422.812 6.5 429.312 14.4844 429.312ZM15 321.047C15 304.164 22.9258 288.527 36.1992 279.219C49.5 269.887 67.8047 264.707 90.6758 263.793V266.414C72.7344 270.91 30.793 284.695 30.793 315.168V332.133C30.793 340.121 37.293 346.617 45.2812 346.617H90.6758V414.309H15V321.047Z" fill="white"/>
<path d="M232.805 280.176C237.531 279.117 240.832 274.988 240.832 270.137V258.203C240.832 255.637 239.824 253.227 237.996 251.418C236.168 249.609 233.789 248.613 231.184 248.656C202.648 248.949 179.621 255.098 162.746 266.938C145.473 279.051 135.156 299.277 135.156 321.047V414.824C135.156 422.812 141.656 429.312 149.645 429.312H170.496C174.637 429.312 177.996 425.953 177.996 421.812C177.996 417.668 174.637 414.312 170.496 414.312H150.156V321.047C150.156 304.164 158.082 288.527 171.359 279.219C184.66 269.891 202.961 264.707 225.832 263.793V266.418C207.891 270.91 165.953 284.695 165.953 315.168V332.133C165.953 340.121 172.449 346.621 180.438 346.621H225.832V414.312H205.496C201.352 414.312 197.996 417.668 197.996 421.812C197.996 425.953 201.352 429.312 205.496 429.312H226.348C234.336 429.312 240.832 422.812 240.832 414.824V346.105C240.832 338.117 234.336 331.621 226.348 331.621H180.953V315.168C180.953 292.461 227.5 281.363 232.805 280.176V280.176Z" fill="white"/>
<path d="M497.516 83H420.812C412.824 83 406.328 89.5 406.328 97.4844V166.203C406.328 174.191 412.824 180.691 420.812 180.691H466.207V197.141C466.207 219.852 419.66 230.945 414.352 232.137C409.625 233.195 406.328 237.324 406.328 242.176V254.109C406.328 256.676 407.332 259.086 409.16 260.895C410.965 262.68 413.344 263.656 415.871 263.656H415.973C444.508 263.363 467.535 257.215 484.414 245.375C501.688 233.258 512 213.031 512 191.266V151.121C512 146.98 508.645 143.621 504.5 143.621C500.355 143.621 497 146.98 497 151.121V191.266C497 208.148 489.074 223.785 475.801 233.094C462.5 242.422 444.195 247.605 421.324 248.52V245.895C439.266 241.402 481.207 227.617 481.207 197.145V180.176C481.207 172.191 474.707 165.691 466.719 165.691H421.324V98H497V116.117C497 120.262 500.355 123.617 504.5 123.617C508.645 123.617 512 120.262 512 116.117V97.4844C512 89.4961 505.504 83 497.516 83Z" fill="white"/>
</svg>
