<svg width="300" height="350" viewBox="0 0 300 350" fill="none" xmlns="http://www.w3.org/2000/svg">
<g clip-path="url(#clip0)">
<path d="M39.508 7.17706H145.648C164.232 7.17706 179.297 24.7529 179.297 46.4338V163.941C179.297 185.622 164.232 203.198 145.648 203.198H90.2162V245.089L54.3094 203.198H39.5086C20.9244 203.198 5.85938 185.622 5.85938 163.941V46.4338C5.85938 24.7529 20.9244 7.17706 39.508 7.17706Z" fill="#FF5D5D"/>
<path d="M265.039 137.06H173.242C157.17 137.06 144.141 152.261 144.141 171.012V272.64C144.141 291.391 157.17 306.592 173.242 306.592H188.868V342.822L219.922 306.592H265.039C281.112 306.592 294.141 291.391 294.141 272.64V171.011C294.141 152.26 281.111 137.06 265.039 137.06Z" fill="#4DBAF6"/>
<path d="M232.082 262.728V244.317C242.209 243.242 247.271 234.689 247.271 218.656H232.079C230.403 218.656 229.044 217.071 229.044 215.116V185.374C229.044 183.419 230.403 181.834 232.079 181.834H260.609C262.285 181.834 263.644 183.419 263.644 185.374V217.39C263.644 246.234 253.124 261.347 232.082 262.728Z" fill="#4DBAF6"/>
<path d="M177.675 262.728V244.317C187.802 243.242 192.864 234.689 192.864 218.656H177.672C175.996 218.656 174.637 217.071 174.637 215.116V185.374C174.637 183.419 175.996 181.834 177.672 181.834H206.202C207.878 181.834 209.237 183.419 209.237 185.374V217.39C209.237 246.234 198.717 261.347 177.675 262.728Z" fill="#4DBAF6"/>
<path d="M265.039 137.06H173.242C157.17 137.06 144.141 152.261 144.141 171.012V272.64C144.141 291.391 157.17 306.592 173.242 306.592H188.868V342.822L219.922 306.592H265.039C281.112 306.592 294.141 291.391 294.141 272.64V171.011C294.141 152.26 281.111 137.06 265.039 137.06Z" fill="#4DBAF6"/>
<path d="M78.4699 60.2485V80.7058C67.2176 81.9 61.5932 91.404 61.5932 109.218H78.4735C80.3356 109.218 81.845 110.979 81.845 113.151V146.197C81.845 148.37 80.3356 150.131 78.4735 150.131H46.7725C44.9104 150.131 43.401 148.37 43.401 146.197V110.624C43.401 78.5757 55.0893 61.7825 78.4699 60.2485Z" fill="white"/>
<path d="M138.373 60.2485V80.7058C127.12 81.9 121.496 91.404 121.496 109.218H138.376C140.238 109.218 141.748 110.979 141.748 113.151V146.197C141.748 148.37 140.238 150.131 138.376 150.131H106.675C104.813 150.131 103.304 148.37 103.304 146.197V110.624C103.304 78.5757 114.993 61.7825 138.373 60.2485Z" fill="white"/>
<path d="M232.082 262.728V244.317C242.209 243.242 247.271 234.689 247.271 218.656H232.079C230.403 218.656 229.044 217.071 229.044 215.116V185.374C229.044 183.419 230.403 181.834 232.079 181.834H260.609C262.285 181.834 263.644 183.419 263.644 185.374V217.39C263.644 246.234 253.124 261.347 232.082 262.728Z" fill="white"/>
<path d="M177.675 262.728V244.317C187.802 243.242 192.864 234.689 192.864 218.656H177.672C175.996 218.656 174.638 217.071 174.638 215.116V185.374C174.638 183.419 175.996 181.834 177.672 181.834H206.203C207.878 181.834 209.237 183.419 209.237 185.374V217.39C209.237 246.234 198.717 261.347 177.675 262.728Z" fill="white"/>
<path d="M79.0008 87.513C82.0184 87.1924 84.3293 84.2406 84.3293 80.7051V60.2486C84.3293 58.3687 83.666 56.5722 82.4953 55.2809C81.324 53.9896 79.7525 53.3231 78.1406 53.4235C59.6197 54.639 37.541 65.5491 37.541 110.624V146.198C37.541 152.137 41.6818 156.968 46.7725 156.968H78.4734C83.5635 156.968 87.7043 152.137 87.7043 146.198V113.152C87.7043 107.213 83.5635 102.383 78.4734 102.383H67.8105C69.4148 88.5295 75.9797 87.8343 79.0008 87.513ZM61.5926 116.053H75.985V143.295H49.2598V110.623C49.2598 79.1711 61.2486 70.3876 72.6105 67.9075V75.0955C64.7637 77.8818 55.7332 86.1103 55.7332 109.217C55.7332 112.993 58.357 116.053 61.5926 116.053Z" fill="black"/>
<path d="M231.551 237.509C228.533 237.83 226.222 240.782 226.222 244.317V262.728C226.222 264.608 226.886 266.405 228.057 267.696C229.147 268.899 230.589 269.564 232.082 269.564C232.191 269.564 232.301 269.561 232.411 269.553C249.332 268.442 269.504 258.491 269.504 217.39V185.374C269.504 179.653 265.513 174.998 260.61 174.998H232.079C227.176 174.998 223.185 179.653 223.185 185.374V215.116C223.185 220.838 227.176 225.492 232.079 225.492H241.007C239.515 236.663 234.278 237.219 231.551 237.509ZM237.941 249.873C245.094 247.171 253.13 239.496 253.13 218.656C253.13 214.881 250.506 211.82 247.271 211.82H234.904V188.67H257.785V217.39C257.785 244.53 247.73 252.584 237.942 254.995V249.873H237.941Z" fill="black"/>
<path d="M168.778 185.374V215.116C168.778 220.838 172.768 225.492 177.672 225.492H186.601C185.109 236.662 179.872 237.219 177.144 237.509C174.127 237.83 171.816 240.782 171.816 244.317V262.728C171.816 264.608 172.479 266.405 173.65 267.696C174.741 268.899 176.182 269.564 177.675 269.564C177.785 269.564 177.894 269.561 178.004 269.553C194.926 268.442 215.096 258.491 215.096 217.39V185.374C215.096 179.653 211.106 174.998 206.202 174.998H177.672C172.768 174.998 168.778 179.653 168.778 185.374ZM180.497 188.67H203.378V217.39C203.378 244.53 193.323 252.584 183.535 254.995V249.872C190.687 247.17 198.724 239.495 198.724 218.656C198.724 214.88 196.1 211.82 192.865 211.82H180.497V188.67H180.497Z" fill="black"/>
<path d="M265.039 130.224H246.344C243.108 130.224 240.485 133.284 240.485 137.06C240.485 140.835 243.108 143.896 246.344 143.896H265.039C277.855 143.896 288.281 156.06 288.281 171.012V272.64C288.281 287.591 277.855 299.756 265.039 299.756H219.922C218.368 299.756 216.878 300.476 215.779 301.758L194.726 326.319V306.591C194.726 302.816 192.103 299.755 188.867 299.755H173.242C160.427 299.755 150 287.591 150 272.639V171.011C150 156.06 160.427 143.895 173.242 143.895H195.117C198.353 143.895 200.977 140.835 200.977 137.059C200.977 133.284 198.353 130.223 195.117 130.223H173.242C163.122 130.223 153.997 135.271 147.607 143.315V113.15C147.607 107.211 143.466 102.38 138.376 102.38H127.714C129.318 88.5288 135.882 87.8329 138.904 87.5123C141.922 87.1917 144.233 84.2399 144.233 80.7044V60.2485C144.233 58.3687 143.569 56.5722 142.399 55.2809C141.227 53.9896 139.649 53.321 138.044 53.4235C119.522 54.639 97.4443 65.5498 97.4443 110.624V146.198C97.4443 152.137 101.585 156.967 106.676 156.967H138.377C139.116 156.967 139.832 156.855 140.522 156.662C139.078 161.129 138.282 165.963 138.282 171.012V272.64C138.282 295.13 153.966 313.428 173.243 313.428H183.008V342.822C183.008 345.587 184.436 348.08 186.625 349.138C187.35 349.489 188.112 349.659 188.866 349.659C190.392 349.659 191.89 348.964 193.011 347.657L222.349 313.428H265.039C284.316 313.428 300 295.131 300 272.64V171.011C300 148.521 284.316 130.224 265.039 130.224ZM135.888 143.295H109.163V110.623C109.163 79.1718 121.152 70.3876 132.514 67.9075V75.0962C124.667 77.8818 115.637 86.1103 115.637 109.217C115.637 112.993 118.26 116.053 121.496 116.053H135.888V143.295Z" fill="black"/>
<path d="M222.07 143.896C223.611 143.896 225.123 143.164 226.212 141.893C227.302 140.621 227.93 138.858 227.93 137.06C227.93 135.262 227.303 133.498 226.212 132.227C225.123 130.955 223.611 130.224 222.07 130.224C220.529 130.224 219.018 130.955 217.928 132.227C216.838 133.498 216.211 135.262 216.211 137.06C216.211 138.858 216.837 140.621 217.928 141.893C219.018 143.164 220.529 143.896 222.07 143.896Z" fill="black"/>
<path d="M179.297 106.073C177.756 106.073 176.244 106.797 175.154 108.075C174.064 109.34 173.438 111.104 173.438 112.909C173.438 114.706 174.064 116.47 175.154 117.742C176.245 119.013 177.756 119.744 179.297 119.744C180.844 119.744 182.35 119.013 183.439 117.742C184.529 116.47 185.156 114.706 185.156 112.909C185.156 111.104 184.529 109.34 183.439 108.075C182.35 106.797 180.844 106.073 179.297 106.073Z" fill="black"/>
<path d="M116.602 196.362H90.2162C86.9807 196.362 84.3568 199.422 84.3568 203.198V228.586L58.4525 198.364C57.3533 197.082 55.8633 196.362 54.3094 196.362H39.508C24.1846 196.362 11.7188 181.817 11.7188 163.941V46.4338C11.7188 28.5571 24.1846 14.013 39.508 14.013H145.648C160.972 14.013 173.438 28.5571 173.438 46.4338V86.9292C173.438 90.7047 176.061 93.7651 179.297 93.7651C182.532 93.7651 185.156 90.7047 185.156 86.9292V46.4338C185.156 21.0178 167.433 0.341125 145.648 0.341125H39.508C17.7229 0.341125 0 21.0178 0 46.4338V163.941C0 189.357 17.7229 210.033 39.508 210.033H51.8818L86.073 249.923C87.1939 251.231 88.6928 251.925 90.2174 251.925C90.9721 251.925 91.7338 251.755 92.4586 251.405C94.6477 250.346 96.0756 247.854 96.0756 245.089V210.033H116.602C119.837 210.033 122.461 206.973 122.461 203.198C122.461 199.422 119.837 196.362 116.602 196.362Z" fill="black"/>
</g>
<defs>
<clipPath id="clip0">
<rect width="300" height="350" fill="white"/>
</clipPath>
</defs>
</svg>
