<svg width="462" height="513" viewBox="0 0 462 513" fill="none" xmlns="http://www.w3.org/2000/svg">
<path d="M452.994 124.391C444.364 95.064 426.465 69.322 401.978 51.02C353.836 13.258 308.828 -2.39599 256.178 0.295013C228.414 2.21201 200.827 6.15301 173.636 12.087C135.136 19.837 107.178 33.37 88.1439 53.462C73.0509 69.534 61.4009 88.521 53.9099 109.257C50.7459 118.344 48.1689 127.624 46.1929 137.04L45.4759 140.128C43.6829 146.763 41.2609 153.212 38.2429 159.386C36.4679 163.344 34.7019 167.307 33.1849 171.336C31.2139 175.851 30.4229 180.793 30.8849 185.698C32.6169 193.325 37.0359 200.074 43.3349 204.71C47.5179 208.543 50.2679 211.235 50.2929 213.685C49.9619 214.961 49.4599 216.186 48.8009 217.327C38.5809 238.869 26.0579 259.24 11.4509 278.085C5.32594 285.564 -1.09906 294.289 0.200941 303.172C2.05994 309.901 6.50594 315.622 12.5679 319.085C15.3889 321.046 18.3649 322.773 21.4679 324.248C25.1509 326.123 31.3179 329.269 31.7429 331.515C32.3049 334.397 31.9789 337.381 30.8089 340.073C29.5419 342.744 28.2259 345.052 27.0919 347.056C23.9589 352.598 18.7089 361.873 26.6249 368.51C28.4669 370.139 31.6169 372.615 34.4999 374.818C32.3649 378.568 31.4069 382.874 31.7499 387.176C32.2109 390.515 34.0289 393.516 36.7749 395.472C38.6829 396.826 40.7249 398.005 42.7499 399.164C47.7669 402.023 49.7249 403.356 50.3999 406.018C50.8479 409.493 50.5329 413.024 49.4749 416.364C48.9829 418.601 48.4999 420.839 48.1999 423.072C47.3429 430.833 48.3219 438.688 51.0589 446.001C55.4869 462.204 71.8169 472.113 88.2339 468.559C112.601 462.683 136.633 455.496 160.225 447.03C179.408 458.359 191.525 492.647 194.683 505.505C195.625 509.319 199.046 512.001 202.975 512.005H418.725C421.43 512.004 423.975 510.721 425.584 508.546C427.193 506.371 427.675 503.562 426.884 500.976C424.605 494.962 421.36 489.36 417.275 484.393C414.962 481.444 412.905 478.303 411.125 475.005C407.28 467.132 404.057 458.971 401.483 450.597C396.604 434.117 393.238 417.226 391.425 400.135C388.408 374.617 392.26 348.757 402.583 325.227C408.9 312.204 416.671 299.938 425.75 288.664C430.908 281.726 436.233 274.552 441.033 266.985C454.503 246.06 461.746 221.737 461.916 196.852C462.429 172.396 459.424 147.993 452.994 124.391ZM444.852 196.611C444.708 218.344 438.381 239.587 426.61 257.857C422.152 264.882 417.019 271.799 412.052 278.491C402.198 290.799 393.774 304.188 386.944 318.399C375.402 344.72 371.1 373.646 374.485 402.187C376.416 420.292 379.995 438.182 385.177 455.637C388.006 464.834 391.544 473.797 395.76 482.445C397.976 486.677 400.567 490.701 403.502 494.47C403.619 494.624 403.735 494.783 403.843 494.941H209.436C203.753 474.688 193.456 456.027 179.353 440.42C181.586 439.641 183.703 438.899 185.67 438.207C192.061 435.97 196.878 434.278 199.303 433.515C235.886 422.032 254.186 405.407 253.686 384.098C253.576 379.385 249.665 375.654 244.953 375.765C240.241 375.876 236.509 379.786 236.62 384.498C236.828 393.29 229.637 406.106 194.178 417.236C191.661 418.032 186.653 419.778 180.028 422.103C173.911 424.245 166.378 426.882 158.136 429.699L158.086 429.716C134.066 438.408 109.594 445.797 84.7779 451.849C76.7849 453.4 69.0019 448.338 67.1779 440.403C65.3309 435.61 64.6259 430.453 65.1199 425.34C65.3529 423.574 65.7529 421.807 66.1449 420.04C67.8949 414.12 68.1669 407.861 66.9369 401.811C64.4919 393.974 58.7489 387.594 51.2119 384.34C50.6039 383.994 49.9869 383.644 49.3869 383.29C50.2979 381.424 51.3919 379.652 52.6539 378.003C54.0769 376.19 54.7049 373.879 54.3959 371.595C54.0869 369.312 52.8659 367.25 51.0129 365.881C48.9629 364.368 44.0879 360.714 40.5799 357.914C41.0129 357.118 41.5049 356.247 41.9549 355.46C43.2629 353.143 44.7629 350.473 46.2219 347.41C48.9529 341.441 49.7539 334.768 48.5139 328.322C46.5219 317.86 36.5219 312.764 29.2219 309.039C26.7479 307.868 24.3759 306.494 22.1299 304.931C20.3569 303.7 18.6769 302.339 17.1049 300.86C17.1299 299.577 18.4629 296.456 25.0299 288.443C40.2809 268.784 53.3539 247.529 64.0219 225.051C66.0759 221.53 67.2239 217.554 67.3639 213.48C66.4959 204.883 61.9339 197.089 54.8639 192.122C51.4139 188.964 48.1559 185.98 47.7889 183.364C47.8209 181.291 48.2869 179.247 49.1559 177.364C50.5559 173.643 52.1979 170.002 53.8229 166.356C57.3029 159.191 60.0749 151.702 62.0979 143.997L62.8229 140.885C64.6379 132.171 67.0089 123.583 69.9229 115.172C76.6179 96.604 87.0329 79.598 100.531 65.197C117.064 47.747 142.081 35.847 177.006 28.818C203.376 23.056 230.13 19.218 257.056 17.335C305.356 14.906 346.789 29.406 391.465 64.456C413.172 80.468 429.022 103.163 436.582 129.056C442.554 151.063 445.341 173.813 444.852 196.611Z" fill="white"/>
<path d="M408.444 138.011H390.752C388.787 131.334 386.113 124.886 382.777 118.778L395.294 106.261C398.219 103.337 398.627 98.737 396.261 95.344C388.057 83.573 377.832 73.349 366.061 65.144C362.672 62.77 358.066 63.176 355.144 66.106L342.627 78.623C336.516 75.286 330.065 72.612 323.385 70.648V52.953C323.383 48.82 320.42 45.282 316.352 44.553C302.222 42.061 287.765 42.061 273.635 44.553C269.566 45.282 266.604 48.82 266.602 52.953V70.649C259.922 72.613 253.471 75.287 247.36 78.624L234.843 66.107C231.921 63.177 227.316 62.771 223.926 65.145C212.155 73.349 201.93 83.574 193.726 95.345C191.36 98.737 191.767 103.338 194.693 106.262L207.21 118.779C203.874 124.887 201.2 131.335 199.235 138.012H181.544C177.41 138.011 173.87 140.975 173.144 145.045C170.633 159.176 170.633 173.639 173.144 187.77C173.87 191.84 177.41 194.804 181.544 194.803H199.236C201.201 201.48 203.875 207.928 207.211 214.036L194.694 226.553C191.769 229.477 191.361 234.077 193.727 237.47C201.931 249.241 212.156 259.466 223.927 267.67C227.32 270.032 231.917 269.627 234.844 266.708L247.361 254.191C253.472 257.528 259.923 260.202 266.603 262.166V279.862C266.605 283.995 269.568 287.533 273.636 288.262C287.765 290.768 302.224 290.768 316.353 288.262C320.422 287.533 323.384 283.995 323.386 279.862V262.166C330.066 260.202 336.517 257.528 342.628 254.191L355.145 266.708C358.071 269.628 362.669 270.034 366.062 267.67C377.833 259.466 388.058 249.241 396.262 237.47C398.628 234.078 398.221 229.477 395.295 226.553L382.778 214.036C386.114 207.927 388.788 201.48 390.753 194.803H408.445C412.579 194.804 416.119 191.84 416.845 187.77C419.356 173.639 419.356 159.176 416.845 145.045C416.118 140.975 412.578 138.011 408.444 138.011ZM401.053 177.737H384.135C380.128 177.736 376.661 180.524 375.802 184.437C373.756 193.795 370.059 202.713 364.885 210.775C362.71 214.149 363.185 218.585 366.027 221.421L378.002 233.396C373.258 239.299 367.887 244.669 361.985 249.413L350.01 237.442C347.174 234.605 342.745 234.126 339.368 236.292C331.304 241.472 322.381 245.171 313.018 247.217C309.105 248.078 306.318 251.544 306.318 255.55V272.467C298.79 273.275 291.196 273.275 283.668 272.467V255.55C283.668 251.544 280.881 248.077 276.968 247.217C267.605 245.171 258.682 241.472 250.618 236.292C247.244 234.117 242.808 234.597 239.976 237.442L228.001 249.413C222.098 244.669 216.728 239.298 211.984 233.396L223.959 221.421C226.8 218.585 227.276 214.15 225.101 210.775C219.927 202.714 216.23 193.795 214.184 184.437C213.325 180.524 209.857 177.736 205.851 177.737H188.935C188.124 170.206 188.124 162.61 188.935 155.079H205.852C209.859 155.08 213.326 152.292 214.185 148.379C216.231 139.021 219.928 130.103 225.102 122.041C227.277 118.667 226.802 114.232 223.96 111.395L211.985 99.42C216.729 93.517 222.1 88.147 228.002 83.403L239.977 95.374C242.809 98.218 247.244 98.698 250.619 96.524C258.683 91.344 267.606 87.645 276.969 85.599C280.882 84.738 283.669 81.272 283.669 77.266V60.349C291.197 59.541 298.791 59.541 306.319 60.349V77.266C306.319 81.272 309.106 84.739 313.019 85.599C322.382 87.645 331.305 91.344 339.369 96.524C342.746 98.689 347.174 98.21 350.011 95.374L361.986 83.403C367.889 88.147 373.259 93.518 378.003 99.42L366.028 111.395C363.187 114.231 362.711 118.666 364.886 122.041C370.06 130.102 373.757 139.021 375.803 148.379C376.662 152.292 380.13 155.08 384.136 155.079H401.053C401.864 162.609 401.864 170.206 401.053 177.737Z" fill="white"/>
<path d="M179.794 247.474H170.048C169.253 244.419 168.033 241.491 166.423 238.776L173.327 231.87C176.659 228.538 176.659 223.136 173.327 219.803C169.995 216.471 164.593 216.471 161.26 219.803L154.355 226.709C151.64 225.101 148.713 223.881 145.66 223.085V213.34C145.66 208.627 141.839 204.807 137.127 204.807C132.415 204.807 128.594 208.628 128.594 213.34V223.085C125.54 223.881 122.613 225.101 119.899 226.709L112.995 219.803C110.84 217.647 107.698 216.806 104.753 217.595C101.808 218.384 99.509 220.684 98.72 223.628C97.931 226.572 98.773 229.714 100.928 231.87L107.832 238.776C106.222 241.491 105.002 244.419 104.207 247.474H94.461C89.748 247.474 85.928 251.294 85.928 256.007C85.928 260.72 89.748 264.54 94.461 264.54H104.207C105.002 267.595 106.222 270.523 107.832 273.238L100.928 280.144C98.773 282.3 97.931 285.441 98.72 288.386C99.509 291.33 101.809 293.63 104.753 294.419C107.697 295.208 110.839 294.366 112.995 292.211L119.899 285.305C122.614 286.913 125.541 288.133 128.595 288.929V298.674C128.595 303.387 132.415 307.207 137.128 307.207C141.841 307.207 145.661 303.387 145.661 298.674V288.929C148.715 288.133 151.642 286.913 154.356 285.305L161.26 292.211C164.592 295.543 169.994 295.543 173.327 292.211C176.659 288.879 176.659 283.476 173.327 280.144L166.423 273.238C168.033 270.523 169.253 267.595 170.048 264.54H179.794C184.507 264.54 188.327 260.72 188.327 256.007C188.327 251.294 184.507 247.474 179.794 247.474ZM137.127 273.074C127.701 273.074 120.06 265.433 120.06 256.007C120.06 246.581 127.701 238.94 137.127 238.94C146.553 238.94 154.194 246.581 154.194 256.007C154.183 265.428 146.548 273.063 137.127 273.074Z" fill="white"/>
<path d="M92.4569 162.141C92.9829 163.853 93.6699 165.512 94.5079 167.095L89.8929 171.712C87.7379 173.868 86.8959 177.009 87.6849 179.954C88.4739 182.898 90.7739 185.198 93.7179 185.987C96.6619 186.776 99.8039 185.934 101.96 183.779L106.588 179.149C108.167 179.983 109.82 180.668 111.526 181.195V187.742C111.526 192.455 115.346 196.275 120.059 196.275C124.772 196.275 128.592 192.455 128.592 187.742V181.195C130.298 180.669 131.951 179.984 133.53 179.149L138.159 183.78C141.491 187.112 146.894 187.112 150.226 183.78C153.558 180.448 153.558 175.045 150.226 171.713L145.61 167.095C146.449 165.512 147.136 163.854 147.662 162.142H154.192C158.905 162.142 162.725 158.321 162.725 153.609C162.725 148.896 158.905 145.076 154.192 145.076H147.662C147.136 143.364 146.449 141.706 145.61 140.123L150.226 135.505C152.382 133.349 153.223 130.208 152.434 127.263C151.645 124.319 149.345 122.019 146.401 121.23C143.457 120.441 140.315 121.283 138.159 123.438L133.53 128.069C131.951 127.235 130.298 126.551 128.592 126.025V119.476C128.592 114.763 124.772 110.943 120.059 110.943C115.346 110.943 111.526 114.763 111.526 119.476V126.026C109.82 126.552 108.167 127.236 106.588 128.07L101.959 123.438C98.6269 120.106 93.2249 120.106 89.8919 123.438C86.5599 126.77 86.5599 132.172 89.8919 135.505L94.5079 140.123C93.6689 141.706 92.9819 143.364 92.4559 145.076H85.9259C81.2129 145.076 77.3929 148.897 77.3929 153.609C77.3929 158.322 81.2139 162.142 85.9259 162.142H92.4569V162.141ZM116.965 142.061C122.189 140.66 127.704 142.943 130.409 147.627C133.114 152.311 132.336 158.228 128.511 162.053C125.095 165.472 119.954 166.496 115.488 164.647C111.022 162.798 108.11 158.44 108.11 153.607C108.109 148.198 111.741 143.462 116.965 142.061Z" fill="white"/>
<path d="M294.994 110.941C264.361 110.941 239.527 135.774 239.527 166.408C239.562 197.027 264.375 221.839 294.994 221.875C325.627 221.875 350.461 197.042 350.461 166.408C350.461 135.774 325.627 110.941 294.994 110.941ZM294.994 204.807C273.786 204.807 256.594 187.615 256.594 166.407C256.617 145.209 273.796 128.03 294.994 128.007C316.202 128.007 333.394 145.199 333.394 166.407C333.394 187.615 316.202 204.807 294.994 204.807Z" fill="white"/>
</svg>
