<svg width="295" height="295" viewBox="0 0 295 295" fill="none" xmlns="http://www.w3.org/2000/svg">
<g clip-path="url(#clip0)">
<path d="M124.916 0.00199741C123.267 0.0469974 121.747 0.901997 120.852 2.287L106.362 24.023H57.012C54.251 24.023 52.012 26.262 52.012 29.023V79.023C52.012 81.784 54.251 84.023 57.012 84.023H107.012C109.773 84.023 112.012 81.784 112.012 79.023V39.574L102.012 54.574V74.023H62.012V34.023H99.694L85.631 55.117L79.485 42.824C78.28 40.339 75.289 39.301 72.804 40.506C70.319 41.711 69.281 44.702 70.486 47.187C70.504 47.223 70.521 47.259 70.54 47.295L80.54 67.295C81.775 69.765 84.778 70.767 87.249 69.532C88.027 69.143 88.69 68.558 89.173 67.834L129.173 7.834C130.738 5.558 130.162 2.445 127.886 0.879997C127.013 0.280997 125.974 -0.0270026 124.916 0.00199741ZM147.012 44.025C144.251 44.025 142.012 46.264 142.012 49.025V59.025C142.012 61.786 144.251 64.025 147.012 64.025H237.012C239.773 64.025 242.012 61.786 242.012 59.025V49.025C242.012 46.264 239.773 44.025 237.012 44.025H147.012V44.025ZM57.012 94.06C54.251 94.06 52.012 96.299 52.012 99.06V149.06C52.012 151.821 54.251 154.06 57.012 154.06H107.012C109.773 154.06 112.012 151.821 112.012 149.06V99.06C112.012 96.299 109.773 94.06 107.012 94.06H57.012ZM62.012 104.06H102.012V144.06H62.012V104.06ZM147.012 114.023C144.251 114.023 142.012 116.262 142.012 119.023V129.023C142.012 131.784 144.251 134.023 147.012 134.023H237.012C239.773 134.023 242.012 131.784 242.012 129.023V119.023C242.012 116.262 239.773 114.023 237.012 114.023H147.012ZM57.012 164.023C54.251 164.023 52.012 166.262 52.012 169.023V219.023C52.012 221.784 54.251 224.023 57.012 224.023H107.012C109.773 224.023 112.012 221.784 112.012 219.023V169.023C112.012 166.262 109.773 164.023 107.012 164.023H57.012ZM62.012 174.023H102.012V214.023H62.012V174.023ZM147.012 184.058C144.251 184.058 142.012 186.297 142.012 189.058V199.058C142.012 201.819 144.251 204.058 147.012 204.058H237.012C239.773 204.058 242.012 201.819 242.012 199.058V189.058C242.012 186.297 239.773 184.058 237.012 184.058H147.012ZM57.012 234.023C54.251 234.023 52.012 236.262 52.012 239.023V289.023C52.012 291.784 54.251 294.023 57.012 294.023H107.012C109.773 294.023 112.012 291.784 112.012 289.023V239.023C112.012 236.262 109.773 234.023 107.012 234.023H57.012ZM62.012 244.023H102.012V284.023H62.012V244.023ZM147.012 254.023C144.251 254.023 142.012 256.262 142.012 259.023V269.023C142.012 271.784 144.251 274.023 147.012 274.023H237.012C239.773 274.023 242.012 271.784 242.012 269.023V259.023C242.012 256.262 239.773 254.023 237.012 254.023H147.012V254.023Z" fill="white"/>
</g>
<defs>
<clipPath id="clip0">
<rect width="294.023" height="294.023" fill="white"/>
</clipPath>
</defs>
</svg>
