<svg width="512" height="512" viewBox="0 0 512 512" fill="none" xmlns="http://www.w3.org/2000/svg">
<path d="M32 96H96V112C96.0055 116.242 97.693 120.308 100.692 123.308C103.692 126.307 107.758 127.994 112 128H272C276.242 127.994 280.308 126.307 283.308 123.308C286.307 120.308 287.994 116.242 288 112V96H352V200H368V96C367.994 91.7582 366.307 87.6918 363.308 84.6924C360.308 81.693 356.242 80.0055 352 80H282.071C281.69 79.6365 281.291 79.2923 280.875 78.9688L260.438 65.3438C259.123 64.468 257.579 64.0005 256 64H240V52C239.995 49.5167 239.414 47.0685 238.302 44.8479C237.191 42.6273 235.579 40.695 233.594 39.2031L206.938 19.2031C204.164 17.132 200.797 16.0088 197.336 16H186.664C183.205 16.0076 179.84 17.131 177.07 19.2031L150.414 39.1953C148.427 40.6878 146.814 42.6211 145.701 44.843C144.588 47.065 144.005 49.5149 144 52V64H128C126.421 64.0005 124.877 64.468 123.562 65.3438L103.125 78.9688C102.709 79.2923 102.31 79.6365 101.929 80H32C27.7582 80.0055 23.6918 81.693 20.6924 84.6924C17.693 87.6918 16.0055 91.7582 16 96V480C16.0055 484.242 17.693 488.308 20.6924 491.308C23.6918 494.307 27.7582 495.994 32 496H312V480H32V96ZM112 92.2812L130.422 80H152C153.051 80.0006 154.091 79.7941 155.062 79.3923C156.033 78.9904 156.915 78.4012 157.658 77.6582C158.401 76.9152 158.99 76.0331 159.392 75.0622C159.794 74.0913 160.001 73.0507 160 72V52L186.664 32H197.336L224 52V72C223.999 73.0507 224.206 74.0913 224.608 75.0622C225.01 76.0331 225.599 76.9152 226.342 77.6582C227.085 78.4012 227.967 78.9904 228.938 79.3923C229.909 79.7941 230.949 80.0006 232 80H253.578L272 92.2812V112L112 112.016V92.2812Z" fill="white"/>
<path d="M192 64C196.418 64 200 60.4183 200 56C200 51.5817 196.418 48 192 48C187.582 48 184 51.5817 184 56C184 60.4183 187.582 64 192 64Z" fill="white"/>
<path d="M130.875 297.852L111.531 313.972C109.224 312.696 106.635 312.018 104 312H72C67.7582 312.006 63.6918 313.693 60.6924 316.692C57.693 319.692 56.0055 323.758 56 328V360C56.0055 364.242 57.693 368.308 60.6924 371.308C63.6918 374.307 67.7582 375.994 72 376H104C108.242 375.994 112.308 374.307 115.308 371.308C118.307 368.308 119.994 364.242 120 360V328C120 327.922 119.978 327.85 119.977 327.772L141.125 310.148L130.875 297.852ZM104 360H72V328H94.6968L82.875 337.852L93.125 350.148L104 341.086V360Z" fill="white"/>
<path d="M130.875 385.852L111.531 401.972C109.224 400.696 106.635 400.018 104 400H72C67.7582 400.006 63.6918 401.693 60.6924 404.692C57.693 407.692 56.0055 411.758 56 416V448C56.0055 452.242 57.693 456.308 60.6924 459.308C63.6918 462.307 67.7582 463.994 72 464H104C108.242 463.994 112.308 462.307 115.308 459.308C118.307 456.308 119.994 452.242 120 448V416C120 415.922 119.978 415.85 119.977 415.772L141.125 398.148L130.875 385.852ZM104 448H72V416H94.6968L82.875 425.852L93.125 438.148L104 429.086V448Z" fill="white"/>
<path d="M184 320H168V336H184V320Z" fill="white"/>
<path d="M304 320H200V336H304V320Z" fill="white"/>
<path d="M208 352H152V368H208V352Z" fill="white"/>
<path d="M304 352H224V368H304V352Z" fill="white"/>
<path d="M184 408H168V424H184V408Z" fill="white"/>
<path d="M312 408H200V424H312V408Z" fill="white"/>
<path d="M208 440H152V456H208V440Z" fill="white"/>
<path d="M312 440H224V456H312V440Z" fill="white"/>
<path d="M328 200V168C327.994 163.758 326.307 159.692 323.308 156.692C320.308 153.693 316.242 152.006 312 152H72C67.7582 152.006 63.6918 153.693 60.6924 156.692C57.693 159.692 56.0055 163.758 56 168V264C56.0055 268.242 57.693 272.308 60.6924 275.308C63.6918 278.307 67.7582 279.994 72 280H264V264H152V216H272V200H152V168H312V200H328ZM136 264H72V216H136V264ZM72 200V168H136V200H72Z" fill="white"/>
<path d="M495.562 309.398C495.217 308.392 494.675 307.464 493.966 306.67C493.258 305.876 492.398 305.231 491.437 304.773L456 287.898V273.289C455.994 269.058 454.873 264.904 452.75 261.245C450.626 257.585 447.576 254.55 443.906 252.445L402.68 228.891C399.546 227.088 396.043 226.02 392.437 225.769C388.83 225.517 385.213 226.088 381.859 227.437L353.15 238.922L323.437 224.773C321.572 223.877 319.429 223.748 317.469 224.414L293.469 232.414C292.472 232.746 291.551 233.271 290.757 233.959C289.964 234.648 289.314 235.485 288.845 236.425C288.375 237.365 288.096 238.388 288.022 239.435C287.948 240.483 288.081 241.535 288.414 242.531L296.414 266.531C296.754 267.553 297.296 268.495 298.009 269.302C298.722 270.109 299.59 270.764 300.562 271.227L330.526 285.494C328.887 288.755 328.022 292.35 328 296V350.109C328.004 352.593 328.582 355.042 329.687 357.266L344 385.891V496H360V385.891C359.996 383.407 359.418 380.958 358.312 378.734L344 350.109V296C344 293.878 344.843 291.843 346.343 290.343C347.843 288.843 349.878 288 352 288C354.122 288 356.157 288.843 357.657 290.343C359.157 291.843 360 293.878 360 296V323.312L386.344 349.656L397.656 338.344L376 316.688V307.149L440 337.625V345.578C440.006 353.404 437.69 361.055 433.344 367.562C427.244 376.698 423.992 387.437 424 398.422V496H440V398.422C439.994 390.596 442.31 382.945 446.656 376.438C452.756 367.302 456.008 356.563 456 345.578V345.245L468.562 351.227C470.455 352.125 472.623 352.246 474.604 351.564C476.584 350.882 478.218 349.451 479.156 347.578L495.156 315.578C495.632 314.627 495.914 313.591 495.983 312.529C496.053 311.468 495.91 310.404 495.562 309.398ZM387.797 242.297C388.916 241.85 390.122 241.661 391.325 241.745C392.527 241.829 393.696 242.183 394.742 242.781L435.969 266.336C437.192 267.039 438.209 268.051 438.917 269.272C439.624 270.493 439.998 271.878 440 273.289V280.279L372.819 248.289L387.797 242.297ZM468.352 333.406L374.79 288.846C373.829 285.686 372.219 282.761 370.064 280.258C367.909 277.755 365.256 275.728 362.274 274.308C359.291 272.888 356.046 272.105 352.744 272.01C349.443 271.915 346.157 272.509 343.098 273.754L310.516 258.242L306.117 245.062L319.469 240.609L477.195 315.719L468.352 333.406Z" fill="white"/>
</svg>
