<svg width="512" height="512" viewBox="0 0 512 512" fill="none" xmlns="http://www.w3.org/2000/svg">
<g clip-path="url(#clip0)">
<path d="M404.288 274.636H143.597C139.455 274.636 136.098 277.994 136.098 282.135C136.098 286.276 139.456 289.634 143.597 289.634H404.289C408.431 289.634 411.788 286.276 411.788 282.135C411.788 277.994 408.43 274.636 404.288 274.636V274.636Z" fill="white"/>
<path d="M404.288 322.961H143.597C139.455 322.961 136.098 326.319 136.098 330.46C136.098 334.601 139.456 337.959 143.597 337.959H404.289C408.431 337.959 411.788 334.601 411.788 330.46C411.788 326.319 408.43 322.961 404.288 322.961V322.961Z" fill="white"/>
<path d="M404.288 371.286H143.597C139.455 371.286 136.098 374.644 136.098 378.785C136.098 382.926 139.456 386.284 143.597 386.284H404.289C408.431 386.284 411.788 382.926 411.788 378.785C411.788 374.644 408.43 371.286 404.288 371.286V371.286Z" fill="white"/>
<path d="M404.288 419.611H143.597C139.455 419.611 136.098 422.969 136.098 427.11C136.098 431.251 139.456 434.609 143.597 434.609H404.289C408.431 434.609 411.788 431.251 411.788 427.11C411.788 422.969 408.43 419.611 404.288 419.611V419.611Z" fill="white"/>
<path d="M404.288 175.702H308.495C304.353 175.702 300.996 179.06 300.996 183.201C300.996 187.342 304.354 190.7 308.495 190.7H404.288C408.43 190.7 411.787 187.342 411.787 183.201C411.787 179.06 408.43 175.702 404.288 175.702Z" fill="white"/>
<path d="M404.288 136.06H308.495C304.353 136.06 300.996 139.418 300.996 143.559C300.996 147.7 304.354 151.058 308.495 151.058H404.288C408.43 151.058 411.787 147.7 411.787 143.559C411.787 139.418 408.43 136.06 404.288 136.06Z" fill="white"/>
<path d="M456.229 417.08C460.371 417.08 463.728 413.722 463.728 409.581V73.248C463.728 56.986 450.498 43.756 434.236 43.756H419.972V29.492C419.973 13.23 406.743 0 390.481 0H77.764C61.502 0 48.272 13.23 48.272 29.492V438.752C48.272 455.014 61.502 468.244 77.764 468.244H92.027V482.507C92.027 498.769 105.257 511.999 121.519 511.999H434.235C450.497 511.999 463.727 498.769 463.727 482.507V444.64C463.727 440.498 460.369 437.141 456.228 437.141C452.087 437.141 448.729 440.499 448.729 444.64V482.508C448.729 490.5 442.227 497.001 434.236 497.001H121.52C113.528 497.001 107.027 490.5 107.027 482.508V73.248C107.027 65.256 113.529 58.755 121.52 58.755H434.236C442.228 58.755 448.729 65.257 448.729 73.248V409.581C448.729 413.722 452.087 417.08 456.229 417.08V417.08ZM92.027 73.248V453.246H77.764C69.772 453.246 63.271 446.744 63.271 438.753V29.492C63.271 21.5 69.773 14.999 77.764 14.999H390.481C398.473 14.999 404.974 21.501 404.974 29.492V43.755H121.52C105.258 43.756 92.027 56.986 92.027 73.248V73.248Z" fill="white"/>
<path d="M142.996 148.151C138.854 148.151 135.497 151.509 135.497 155.65V212.287C135.497 224.048 144.29 233.848 155.963 235.113C158.792 235.422 239.621 235.124 239.741 235.123C239.768 235.12 239.796 235.117 239.823 235.114C251.502 233.854 260.3 224.052 260.3 212.287V114.474C260.3 101.813 250 91.513 237.339 91.513H158.457C145.796 91.513 135.496 101.813 135.496 114.474V120.345C135.496 124.487 138.854 127.844 142.995 127.844C147.136 127.844 150.494 124.486 150.494 120.345V114.474C150.494 110.084 154.066 106.512 158.456 106.512H237.338C241.728 106.512 245.3 110.083 245.3 114.474V191.253C239.57 185.184 232.699 180.244 225.02 176.744C228.239 171.673 230.024 165.732 230.024 159.536C230.024 141.822 215.612 127.41 197.897 127.41C180.183 127.41 165.771 141.822 165.771 159.536C165.771 165.733 167.556 171.673 170.775 176.744C163.095 180.244 156.224 185.184 150.494 191.254V155.65C150.495 151.508 147.138 148.151 142.996 148.151V148.151ZM197.898 142.408C207.343 142.408 215.026 150.091 215.026 159.536C215.026 165.257 212.184 170.579 207.425 173.773C204.606 175.664 201.312 176.664 197.898 176.664C194.484 176.664 191.19 175.665 188.372 173.773C183.612 170.579 180.771 165.257 180.771 159.536C180.771 150.091 188.454 142.408 197.898 142.408ZM183.159 188.063C187.697 190.413 192.722 191.662 197.898 191.662C203.073 191.662 208.098 190.413 212.637 188.063C226.834 192.403 238.323 202.77 244.121 216.472C242.87 218.506 240.725 219.936 238.191 220.203C237.707 220.233 158.917 220.313 157.777 220.219L157.613 220.204C157.609 220.204 157.605 220.203 157.601 220.203C155.068 219.935 152.925 218.505 151.674 216.472C157.473 202.77 168.962 192.403 183.159 188.063V188.063Z" fill="white"/>
</g>
<defs>
<clipPath id="clip0">
<rect width="512" height="512" fill="white"/>
</clipPath>
</defs>
</svg>
