<svg width="512" height="512" viewBox="0 0 512 512" fill="none" xmlns="http://www.w3.org/2000/svg">
<path d="M352 8H160C149.395 8.0127 139.228 12.2311 131.73 19.7298C124.231 27.2285 120.013 37.3952 120 48V464C120.013 474.605 124.231 484.772 131.73 492.27C139.228 499.769 149.395 503.987 160 504H352C362.605 503.987 372.772 499.769 380.27 492.27C387.769 484.772 391.987 474.605 392 464V48C391.987 37.3952 387.769 27.2285 380.27 19.7298C372.772 12.2311 362.605 8.0127 352 8V8ZM313.192 24L293.192 40H218.792L198.792 24H313.192ZM304 488H208V480C208 477.878 208.843 475.843 210.343 474.343C211.843 472.843 213.878 472 216 472H296C298.122 472 300.157 472.843 301.657 474.343C303.157 475.843 304 477.878 304 480V488ZM376 464C376 470.365 373.471 476.47 368.971 480.971C364.47 485.471 358.365 488 352 488H320V480C320 473.635 317.471 467.53 312.971 463.029C308.47 458.529 302.365 456 296 456H216C209.635 456 203.53 458.529 199.029 463.029C194.529 467.53 192 473.635 192 480V488H160C153.635 488 147.53 485.471 143.029 480.971C138.529 476.47 136 470.365 136 464V48C136 41.6348 138.529 35.5303 143.029 31.0294C147.53 26.5286 153.635 24 160 24H173.2L211 54.248C212.419 55.383 214.183 56.0009 216 56H296C297.817 56.0009 299.581 55.383 301 54.248L338.8 24H352C358.365 24 364.47 26.5286 368.971 31.0294C373.471 35.5303 376 41.6348 376 48V464Z" fill="white"/>
<path d="M264 112C257.635 112 251.53 114.529 247.029 119.029C242.529 123.53 240 129.635 240 136V160H224V176H240V216H256V176H272V160H256V136C256 133.878 256.843 131.843 258.343 130.343C259.843 128.843 261.878 128 264 128C266.122 128 268.157 128.843 269.657 130.343C271.157 131.843 272 133.878 272 136V144H288V136C288 129.635 285.471 123.53 280.971 119.029C276.47 114.529 270.365 112 264 112Z" fill="white"/>
<path d="M304 80H208C199.513 80 191.374 83.3714 185.373 89.3726C179.371 95.3737 176 103.513 176 112V216C176 224.487 179.371 232.626 185.373 238.627C191.374 244.629 199.513 248 208 248H304C312.487 248 320.626 244.629 326.627 238.627C332.629 232.626 336 224.487 336 216V112C336 103.513 332.629 95.3737 326.627 89.3726C320.626 83.3714 312.487 80 304 80V80ZM320 216C320 220.243 318.314 224.313 315.314 227.314C312.313 230.314 308.243 232 304 232H208C203.757 232 199.687 230.314 196.686 227.314C193.686 224.313 192 220.243 192 216V112C192 107.757 193.686 103.687 196.686 100.686C199.687 97.6857 203.757 96 208 96H304C308.243 96 312.313 97.6857 315.314 100.686C318.314 103.687 320 107.757 320 112V216Z" fill="white"/>
<path d="M304 264H208C199.513 264 191.374 267.371 185.373 273.373C179.371 279.374 176 287.513 176 296V400C176 408.487 179.371 416.626 185.373 422.627C191.374 428.629 199.513 432 208 432H304C312.487 432 320.626 428.629 326.627 422.627C332.629 416.626 336 408.487 336 400V296C336 287.513 332.629 279.374 326.627 273.373C320.626 267.371 312.487 264 304 264ZM320 400C320 404.243 318.314 408.313 315.314 411.314C312.313 414.314 308.243 416 304 416H208C203.757 416 199.687 414.314 196.686 411.314C193.686 408.313 192 404.243 192 400V296C192 291.757 193.686 287.687 196.686 284.686C199.687 281.686 203.757 280 208 280H304C308.243 280 312.313 281.686 315.314 284.686C318.314 287.687 320 291.757 320 296V400Z" fill="white"/>
<path d="M288 288H304V304H288V288Z" fill="white"/>
<path d="M256 304C246.507 304 237.226 306.815 229.333 312.089C221.439 317.364 215.287 324.86 211.654 333.631C208.021 342.402 207.07 352.053 208.922 361.364C210.774 370.675 215.346 379.228 222.059 385.941C228.772 392.654 237.325 397.226 246.636 399.078C255.947 400.93 265.598 399.979 274.369 396.346C283.14 392.713 290.636 386.561 295.911 378.667C301.185 370.774 304 361.494 304 352C303.987 339.274 298.926 327.072 289.927 318.073C280.928 309.074 268.727 304.013 256 304ZM256 384C249.671 384 243.484 382.123 238.222 378.607C232.959 375.091 228.858 370.093 226.436 364.246C224.014 358.399 223.38 351.965 224.615 345.757C225.85 339.55 228.897 333.848 233.373 329.373C237.848 324.897 243.55 321.85 249.757 320.615C255.965 319.38 262.399 320.014 268.246 322.436C274.093 324.858 279.091 328.959 282.607 334.222C286.123 339.484 288 345.671 288 352C288 360.487 284.629 368.626 278.627 374.627C272.626 380.629 264.487 384 256 384V384Z" fill="white"/>
</svg>
