<svg width="395" height="512" viewBox="0 0 395 512" fill="none" xmlns="http://www.w3.org/2000/svg">
<path d="M344.676 39.3984H296.004V20C296.004 8.95312 287.051 0 276.004 0H118.664C107.617 0 98.6641 8.95312 98.6641 20V39.3984H50C22.4297 39.3984 0 61.8281 0 89.3984V462C0 489.57 22.4297 512 50 512H344.676C372.246 512 394.676 489.57 394.676 462V89.3984C394.676 61.8281 372.242 39.3984 344.676 39.3984V39.3984ZM256.004 40V78.8008H138.66C138.66 65.5078 138.66 54.5273 138.66 40H256.004ZM354.676 462C354.676 467.516 350.188 472 344.676 472H50C44.4844 472 40 467.516 40 462V89.3984C40 83.8867 44.4844 79.3984 50 79.3984H98.6602V98.8008C98.6602 109.848 107.617 118.801 118.66 118.801H276.004C287.047 118.801 296.004 109.848 296.004 98.8008V79.3984H344.676C350.188 79.3984 354.676 83.8867 354.676 89.3984V462ZM290.141 233.52C297.953 241.332 297.953 253.996 290.141 261.805L185.039 366.906C177.23 374.719 164.566 374.719 156.754 366.906L104.523 314.676C96.7148 306.867 96.7148 294.203 104.523 286.391C112.336 278.582 124.996 278.582 132.809 286.391L170.898 324.48L261.855 233.523C269.668 225.711 282.328 225.711 290.141 233.52V233.52Z" fill="white"/>
</svg>
